# xmcd CD database file
# Generated: Tue Sep 3 14:53:18 2002 by KSCD
# 
# Track frame offsets:
#       150
#       16156
#       30730
#       51062
#       64993
#       78764
#       92929
#       114750
#       137500
#       156123
#       171259
#       185631
#       200664
#       204285
#       207093
#       211047
#       213783
#       217494
#       220226
#       223382
#       229077
#       238589
#       245270
#       250421
#       254312
#       257191
#
# Disc length: 3470 seconds
#
# Revision: 1
# Processed by: cddbd v1.4PL0 Copyright (c) Steve Scherf et al.
# Submitted via: Kscd 1.3.3
#
DISCID=830d8c1a
DTITLE=Jay Buckey - Bluegrass Banjo Vol 5
DYEAR=1900
DGENRE=
TTITLE0=High On a Mountain Top
TTITLE1=In the Sweet By and By
TTITLE2=Drifting Too Far From The Shore
TTITLE3=Maiden's Prayer
TTITLE4=What A Friend We Have In Jesus
TTITLE5=Rank Stranger
TTITLE6=Life Is Like A Mountain Railroad
TTITLE7=Get Up John
TTITLE8=The Old Crossroads
TTITLE9=Sweet Hour of Prayer
TTITLE10=Swing Low, Sweet Chariot
TTITLE11=Will The Circle Be Unbroken?
TTITLE12=High On a Mountain Top 100bpm
TTITLE13=High On A Mountain Top 150bpm
TTITLE14=In The Sweet By and By 100bpm
TTITLE15=In The Sweet By and By 150bpm
TTITLE16=What A Friend We Have In Jesus 100bpm
TTITLE17=What A Friend We Have in Jesus 150bpm
TTITLE18=Life Is Like A Mountain Railroad Intro 120bpm
TTITLE19=Life Is Like a Mountain Railroad Split Solo - 120bpm
TTITLE20=Get Up John 100bpm
TTITLE21=Get Up John 150 bpm
TTITLE22=Get Up John 200bpm
TTITLE23=Swing Low Sweet Chariot 100bpm
TTITLE24=Swing Low Sweet Chariot 150bpm
TTITLE25=Will The Circle Be Unbroken 120bpm
EXTD=
EXTT0=
EXTT1=
EXTT2=
EXTT3=
EXTT4=
EXTT5=
EXTT6=
EXTT7=
EXTT8=
EXTT9=
EXTT10=
EXTT11=
EXTT12=
EXTT13=
EXTT14=
EXTT15=
EXTT16=
EXTT17=
EXTT18=
EXTT19=
EXTT20=
EXTT21=
EXTT22=
EXTT23=
EXTT24=
EXTT25=
PLAYORDER=
